<svg xmlns="http://www.w3.org/2000/svg" viewBox="0 0 64 64" role="img" aria-label="SpecGov">
  <rect width="64" height="64" rx="12" fill="#082016" />
  <rect x="10" y="10" width="44" height="44" rx="6" fill="#58a86b" />
  <path d="M20 24c0-5.1 4.1-9 10.4-9 4 0 7.2 1.2 9.8 3.5l-3.4 4.2a10 10 0 0 0-6.4-2.3c-3 0-4.8 1.5-4.8 3.5 0 2.5 2.3 3.1 6.2 4.1 5.8 1.5 9.2 3.8 9.2 9.2 0 5.6-4.3 9.1-10.8 9.1-5 0-9.1-1.6-12.2-4.7l3.7-4.1a12.2 12.2 0 0 0 8.5 3.4c3.2 0 5.2-1.3 5.2-3.4 0-2.3-1.9-3-6.1-4.1C23.8 32 20 29.6 20 24Z" fill="#f7fbf4" />
</svg>
